<?xml version="1.0" standalone="no"?>
<!DOCTYPE svg PUBLIC "-//W3C//DTD SVG 20010904//EN"
 "http://www.w3.org/TR/2001/REC-SVG-20010904/DTD/svg10.dtd">
<svg version="1.0" xmlns="http://www.w3.org/2000/svg"
 width="1344.000000pt" height="1344.000000pt" viewBox="0 0 1344.000000 1344.000000"
 preserveAspectRatio="xMidYMid meet">
<metadata>
Created by potrace 1.11, written by Peter Selinger 2001-2013
</metadata>
<g transform="translate(0.000000,1344.000000) scale(0.100000,-0.100000)"
fill="#000000" stroke="none">
<path d="M703 10037 c-23 -23 -56 -53 -73 -67 -17 -14 -48 -41 -69 -60 -20
-19 -70 -64 -111 -100 -40 -36 -94 -84 -119 -107 -25 -23 -49 -43 -53 -43 -20
0 -3 -26 52 -82 33 -34 60 -62 60 -64 0 -1 25 -28 56 -61 31 -32 100 -104 153
-161 53 -56 128 -136 166 -176 39 -40 122 -129 185 -196 63 -68 140 -149 170
-181 30 -31 101 -106 157 -165 55 -60 125 -134 155 -165 29 -31 103 -109 163
-174 61 -64 137 -145 170 -180 33 -35 112 -118 175 -185 63 -68 138 -147 165
-175 28 -29 100 -106 160 -170 61 -65 135 -144 167 -178 l56 -60 -58 -61 c-62
-64 -90 -94 -285 -301 -66 -70 -140 -149 -165 -174 -25 -26 -103 -110 -175
-186 -71 -76 -149 -158 -172 -183 -23 -24 -93 -98 -155 -165 -62 -66 -140
-149 -173 -183 -33 -35 -109 -115 -170 -180 -60 -65 -128 -136 -150 -159 -22
-23 -94 -100 -160 -170 -66 -70 -144 -153 -174 -184 -29 -31 -99 -105 -155
-164 -55 -60 -121 -130 -146 -156 -25 -27 -54 -58 -64 -69 l-19 -22 86 -82
c308 -297 389 -373 396 -376 5 -1 42 31 83 73 41 41 73 75 71 75 -1 0 28 31
65 69 37 38 123 128 192 201 69 73 152 160 185 195 33 34 130 136 215 225 85
90 173 182 195 205 22 23 105 110 185 194 225 237 235 248 400 421 85 89 173
181 195 205 22 23 115 120 207 216 92 96 179 188 193 205 l26 29 92 -96 c51
-53 142 -149 202 -214 61 -64 135 -143 165 -175 30 -32 111 -118 180 -191 69
-73 140 -149 158 -168 278 -296 408 -383 662 -445 83 -20 125 -25 230 -29 31
-2 188 11 215 17 43 10 152 44 188 59 20 9 37 13 37 9 0 -4 4 -2 8 3 4 6 21
17 37 25 46 22 166 101 205 135 46 40 124 119 310 314 85 90 203 213 263 274
59 61 107 112 107 113 0 1 24 26 53 56 28 30 106 112 173 181 67 70 124 127
128 127 7 0 136 -127 136 -133 0 -1 42 -46 93 -99 50 -54 139 -148 197 -209
58 -61 125 -133 150 -159 37 -39 185 -196 325 -344 17 -18 79 -84 138 -148 59
-63 134 -142 165 -175 31 -33 113 -119 182 -192 69 -74 145 -155 170 -181 165
-175 208 -220 315 -334 66 -71 154 -164 196 -207 41 -43 74 -79 73 -79 -2 0 8
-11 22 -25 14 -14 28 -25 33 -25 4 0 23 15 43 33 19 17 61 55 92 82 31 28 72
64 90 80 43 39 184 166 206 185 9 8 34 30 54 48 l37 33 -53 56 c-51 54 -183
193 -278 293 -25 26 -110 116 -190 200 -160 168 -168 177 -390 409 -85 89
-177 186 -205 215 -138 145 -390 410 -467 490 -48 50 -114 120 -148 156 -34
36 -128 135 -209 220 -274 287 -290 305 -291 315 0 6 54 67 120 135 66 68 120
125 120 125 0 1 41 44 91 96 104 108 360 375 434 454 46 48 301 314 440 460
33 34 132 138 220 230 272 286 292 304 374 343 83 38 193 52 260 31 48 -15
138 -56 157 -72 26 -20 364 -367 358 -367 0 0 27 -28 60 -63 86 -89 257 -268
421 -442 77 -81 169 -178 205 -215 36 -37 126 -132 200 -211 74 -78 155 -163
180 -189 25 -26 108 -113 185 -194 77 -81 169 -178 205 -215 36 -38 124 -130
195 -205 72 -76 157 -166 190 -200 33 -35 105 -110 160 -168 55 -58 170 -178
255 -268 162 -169 167 -175 370 -389 69 -72 168 -176 220 -231 52 -54 156
-163 230 -241 74 -78 160 -168 191 -200 l56 -59 20 23 c11 12 103 101 204 197
100 96 198 189 216 206 17 17 33 36 35 42 3 9 -87 108 -267 297 -52 55 -107
113 -314 333 -24 26 -101 108 -171 182 -70 74 -145 153 -165 175 -21 22 -97
102 -169 179 -72 76 -147 155 -166 176 -69 74 -306 324 -345 366 -70 73 -289
306 -314 333 -13 14 -63 67 -110 117 -47 50 -138 146 -201 213 -63 67 -140
148 -170 180 -30 32 -111 118 -180 191 -69 73 -162 172 -206 219 -45 47 -107
113 -139 146 -31 33 -99 105 -150 160 -52 55 -120 127 -152 161 -32 34 -114
121 -183 194 -214 228 -231 244 -346 321 -125 84 -294 155 -428 180 -33 6 -72
15 -86 18 -61 17 -301 0 -398 -28 -17 -5 -32 -7 -32 -4 0 3 -6 1 -13 -4 -6 -6
-30 -16 -52 -23 -49 -15 -189 -82 -193 -92 -2 -5 -8 -8 -13 -8 -11 0 -72 -42
-77 -52 -2 -5 -10 -8 -18 -8 -16 0 -219 -200 -426 -420 -202 -215 -212 -226
-358 -381 -74 -78 -165 -174 -202 -212 -38 -39 -68 -71 -68 -72 0 -1 -37 -40
-83 -87 -45 -47 -113 -119 -151 -159 -71 -77 -299 -317 -422 -446 l-71 -75
-66 69 c-36 37 -92 95 -124 129 -32 34 -132 139 -223 234 -91 95 -208 218
-260 274 -155 164 -333 340 -365 362 -16 11 -52 36 -80 55 -69 48 -185 103
-280 134 -189 62 -462 66 -635 8 -25 -8 -49 -16 -55 -17 -59 -15 -171 -71
-270 -135 -70 -45 -136 -101 -217 -183 -65 -65 -118 -120 -118 -122 0 -2 -26
-31 -57 -64 -32 -32 -111 -115 -175 -183 -64 -68 -144 -153 -178 -189 -34 -36
-105 -111 -158 -168 -53 -57 -117 -124 -141 -149 l-44 -46 -91 95 c-90 94
-355 373 -449 472 -27 28 -115 121 -196 206 -161 169 -188 197 -384 403 -73
77 -161 170 -197 207 -36 38 -135 142 -220 231 -85 90 -175 184 -200 210 -25
26 -106 111 -180 189 -243 256 -277 290 -281 289 -2 0 -23 -19 -46 -42z m4087
-1656 c60 -18 135 -60 171 -94 28 -28 163 -169 339 -357 77 -82 268 -285 320
-340 117 -124 292 -308 297 -314 3 -3 -19 -31 -48 -62 -30 -31 -74 -77 -98
-103 -24 -25 -80 -85 -125 -132 -254 -268 -368 -388 -401 -424 -241 -258 -309
-324 -362 -352 -77 -41 -119 -53 -188 -57 -136 -7 -220 29 -326 139 -178 184
-232 240 -359 375 -74 79 -166 175 -203 214 -38 39 -124 129 -190 200 -67 71
-137 144 -156 163 l-35 33 35 37 c19 20 63 67 99 104 36 37 121 127 190 199
69 73 155 164 193 202 37 39 67 74 67 79 0 5 6 9 14 9 8 0 16 5 18 10 6 18
382 409 419 435 16 12 93 41 124 48 35 7 169 0 205 -12z"/>
<path d="M5764 4787 c-12 -13 -23 -22 -94 -77 -24 -19 -52 -42 -61 -50 -8 -8
-27 -24 -40 -35 -35 -28 -142 -118 -155 -130 -6 -5 -26 -21 -43 -35 -17 -14
-50 -41 -73 -61 l-42 -37 35 -37 c18 -21 50 -54 69 -75 92 -98 288 -306 315
-335 271 -289 410 -437 471 -502 l51 -53 31 30 c18 16 34 30 36 30 2 0 22 17
43 38 21 20 72 66 112 102 40 36 86 76 101 90 15 14 55 50 89 80 35 30 73 65
86 76 l24 22 -71 73 c-76 79 -519 536 -739 761 -103 105 -137 134 -145 125z"/>
</g>
</svg>
